<svg xmlns="http://www.w3.org/2000/svg" viewBox="0 0 600 400" role="img" aria-label="Illustration: einsame Figur auf einer Bank unter dem Mond">
<defs><radialGradient id="g" cx="50%" cy="45%" r="75%"><stop offset="0" stop-color="#2a211c"/><stop offset="1" stop-color="#161210"/></radialGradient></defs>
<rect width="600" height="400" fill="url(#g)"/>
<g fill="#f6efe6"><circle cx="60" cy="50" r="1.5" opacity=".7"/><circle cx="130" cy="110" r="1.2" opacity=".7"/><circle cx="220" cy="40" r="1.8" opacity=".7"/><circle cx="330" cy="80" r="1.2" opacity=".7"/><circle cx="520" cy="40" r="1.6" opacity=".7"/><circle cx="560" cy="150" r="1.2" opacity=".7"/><circle cx="90" cy="170" r="1.4" opacity=".7"/><circle cx="300" cy="150" r="1" opacity=".7"/><circle cx="480" cy="200" r="1.2" opacity=".7"/></g><circle cx="440" cy="120" r="62" fill="#ffd166" opacity=".9"/><circle cx="462" cy="108" r="54" fill="#1f1814" opacity=".35"/><path d="M0 320 Q150 270 320 310 T600 290 V400 H0 Z" fill="#0e0b09"/><g stroke="#b8ac9d" stroke-width="3" stroke-linecap="round" fill="none"><path d="M130 300 H190"/><path d="M136 300 V318 M184 300 V318"/><path d="M132 284 H188"/></g><circle cx="160" cy="262" r="8" fill="#ff5a8a"/><path d="M160 270 V292 M160 278 L148 292 M160 278 L172 290" stroke="#ff5a8a" stroke-width="4" stroke-linecap="round" fill="none"/>
</svg>